<?xml version="1.0" standalone="no"?>
<!DOCTYPE svg PUBLIC "-//W3C//DTD SVG 20010904//EN"
 "http://www.w3.org/TR/2001/REC-SVG-20010904/DTD/svg10.dtd">
<svg version="1.0" xmlns="http://www.w3.org/2000/svg"
 width="512.000000pt" height="512.000000pt" viewBox="0 0 512.000000 512.000000"
 preserveAspectRatio="xMidYMid meet">
<metadata>
Created by potrace 1.11, written by Peter Selinger 2001-2013
</metadata>
<g transform="translate(0.000000,512.000000) scale(0.100000,-0.100000)"
fill="#000000" stroke="none">
<path d="M0 2560 l0 -2560 2560 0 2560 0 0 2560 0 2560 -2560 0 -2560 0 0
-2560z m2325 -161 c205 -25 358 -92 470 -204 128 -128 177 -261 177 -480 0
-151 -19 -240 -76 -354 -43 -84 -142 -193 -215 -236 -28 -16 -49 -35 -47 -41
2 -6 92 -149 200 -318 108 -169 196 -310 196 -312 0 -2 -129 -3 -286 -2 l-286
3 -141 268 -141 267 -193 0 -193 0 0 -270 0 -270 -255 0 -255 0 0 980 0 980
478 0 c286 0 513 -4 567 -11z m2525 -194 l0 -205 -515 0 -515 0 0 -185 0 -185
465 0 465 0 0 -200 0 -200 -465 0 -465 0 0 -185 0 -185 530 0 530 0 0 -205 0
-205 -785 0 -785 0 0 980 0 980 770 0 770 0 0 -205z"/>
<path d="M1790 1700 l0 -302 243 4 c228 3 245 4 292 26 110 51 165 142 165
276 0 131 -51 222 -152 267 -51 23 -64 24 -300 27 l-248 3 0 -301z"/>
</g>
</svg>
