<svg fill="none" height="85" viewBox="0 0 556 85" width="556" xmlns="http://www.w3.org/2000/svg" xmlns:xlink="http://www.w3.org/1999/xlink"><clipPath id="a"><path d="m0 0h555.2v84.2h-555.2z"/></clipPath><g clip-path="url(#a)"><g fill="#fff"><path d="m248.4 74.8001c-2.5-1.4-4.5-3.3-5.9-5.8s-2.1-5.2-2.1-8.3c0-3 .7-5.8 2.1-8.3s3.4-4.4 5.9-5.8 5.4-2.1 8.5-2.1c2.4 0 4.5.4 6.5 1.2s3.7 1.9 5.1 3.4l-2.1 2.1c-2.5-2.5-5.6-3.8-9.4-3.8-2.5 0-4.8.6-6.8 1.7-2.1 1.1-3.7 2.7-4.8 4.7-1.2 2-1.7 4.2-1.7 6.7s.6 4.7 1.7 6.7c1.2 2 2.8 3.6 4.8 4.7s4.3 1.7 6.8 1.7c3.8 0 6.9-1.3 9.4-3.8l2.1 2.1c-1.4 1.5-3.1 2.7-5.1 3.5s-4.2 1.2-6.5 1.2c-3.2.3-6-.4-8.5-1.8z"/><path d="m279.6 74.8001c-2.5-1.4-4.5-3.3-6-5.8-1.4-2.4-2.1-5.2-2.1-8.2s.7-5.8 2.1-8.2 3.4-4.4 6-5.8c2.5-1.4 5.4-2.1 8.5-2.1s6 .7 8.5 2.1 4.5 3.3 5.9 5.8 2.2 5.2 2.2 8.3c0 3-.7 5.8-2.2 8.3-1.4 2.5-3.4 4.4-5.9 5.8s-5.3 2.1-8.5 2.1c-3.1-.2-5.9-.9-8.5-2.3zm15.3-2.6c2-1.1 3.6-2.7 4.7-4.7s1.7-4.2 1.7-6.7-.6-4.7-1.7-6.7-2.7-3.6-4.7-4.7-4.3-1.7-6.8-1.7-4.8.6-6.8 1.7-3.6 2.7-4.8 4.7-1.7 4.2-1.7 6.7.6 4.7 1.7 6.7c1.2 2 2.8 3.6 4.8 4.7s4.3 1.7 6.8 1.7c2.6 0 4.8-.6 6.8-1.7z"/><path d="m338.1 44.9001v31.6h-2.8l-20.3-25.6v25.7h-3.3v-31.7h2.8l20.4 25.7v-25.7z"/><path d="m351.1 47.8001v12.4h16.4v2.9h-16.4v13.4h-3.3v-31.6h21.7v2.9z"/><path d="m390.1 73.3001c-2.3-2.4-3.4-5.8-3.4-10.3v-18.1h3.3v18c0 3.7.8 6.4 2.5 8.2s4.1 2.7 7.2 2.7c3.2 0 5.6-.9 7.2-2.7 1.7-1.8 2.5-4.6 2.5-8.2v-18h3.3v18.1c0 4.5-1.1 7.9-3.4 10.3s-5.5 3.5-9.6 3.5-7.3-1.1-9.6-3.5z"/><path d="m424.1 75.7001c-2.2-.8-3.8-1.7-5-3l1.3-2.6c1.1 1.1 2.7 2.1 4.6 2.8s3.9 1.1 5.9 1.1c2.8 0 5-.5 6.4-1.6 1.4-1 2.1-2.4 2.1-4 0-1.3-.4-2.3-1.2-3-.8-.8-1.7-1.3-2.8-1.7s-2.7-.9-4.7-1.3c-2.4-.6-4.3-1.2-5.7-1.7-1.4-.6-2.6-1.4-3.6-2.6-1-1.1-1.5-2.7-1.5-4.7 0-1.6.4-3.1 1.3-4.4.8-1.3 2.1-2.4 3.9-3.1 1.7-.8 3.9-1.2 6.5-1.2 1.8 0 3.6.2 5.3.7s3.2 1.2 4.5 2.1l-1.1 2.7c-1.3-.9-2.7-1.5-4.3-2-1.5-.4-3-.7-4.4-.7-2.8 0-4.9.5-6.3 1.6s-2.1 2.4-2.1 4.1c0 1.3.4 2.3 1.2 3.1s1.7 1.4 2.9 1.8 2.7.9 4.7 1.3c2.3.6 4.2 1.1 5.6 1.7s2.6 1.4 3.6 2.5 1.5 2.7 1.5 4.6c0 1.6-.4 3.1-1.3 4.4s-2.2 2.4-4 3.1c-1.8.8-4 1.2-6.6 1.2-2.3 0-4.6-.4-6.7-1.2z"/><path d="m480.8 70.6001v6h-23.9v-4.7l12.1-11.6c1.3-1.2 2.2-2.3 2.6-3.2.5-.9.7-1.8.7-2.6 0-1.3-.4-2.2-1.3-2.9s-2.1-1-3.8-1c-1.4 0-2.6.3-3.8.8-1.1.5-2 1.3-2.8 2.4l-5.3-3.4c1.2-1.8 2.9-3.3 5.1-4.3s4.7-1.6 7.5-1.6c2.4 0 4.4.4 6.2 1.2s3.1 1.9 4.1 3.3 1.5 3.1 1.5 5c0 1.7-.4 3.3-1.1 4.8s-2.1 3.2-4.2 5.2l-7.3 6.9h13.7z"/><path d="m489.6 75.2001c-2.1-1.3-3.7-3.2-4.8-5.6-1.2-2.5-1.7-5.4-1.7-8.8s.6-6.3 1.7-8.8c1.2-2.5 2.8-4.3 4.8-5.6s4.4-1.9 7-1.9 5 .6 7 1.9 3.7 3.2 4.8 5.6c1.2 2.5 1.7 5.4 1.7 8.8s-.6 6.3-1.7 8.8c-1.2 2.5-2.8 4.3-4.8 5.6-2.1 1.3-4.4 1.9-7 1.9s-4.9-.6-7-1.9zm11.6-6.7c1.1-1.7 1.7-4.2 1.7-7.7s-.6-6-1.7-7.7-2.6-2.5-4.5-2.5-3.4.8-4.5 2.5-1.7 4.2-1.7 7.7.6 6 1.7 7.7 2.6 2.5 4.5 2.5c1.9-.1 3.4-.9 4.5-2.5z"/><path d="m525.1 44.9001v31.6h-7.3v-25.7h-6.3v-5.9z"/><path d="m551.5 48.4001c2.5 2.7 3.8 6.6 3.8 11.6 0 3.6-.7 6.7-2 9.2-1.3 2.6-3.2 4.5-5.7 5.8-2.4 1.3-5.3 2-8.5 2-1.7 0-3.3-.2-4.8-.6s-2.8-.9-3.9-1.6l2.7-5.4c1.5 1.1 3.5 1.6 5.9 1.6 2.7 0 4.8-.8 6.4-2.4s2.4-3.9 2.5-6.8c-1.9 1.9-4.5 2.8-7.9 2.8-2 0-3.9-.4-5.5-1.2-1.7-.8-3-2-3.9-3.5-1-1.5-1.4-3.2-1.4-5.2 0-2.1.5-4 1.6-5.6s2.5-2.8 4.3-3.7 3.8-1.3 6.1-1.3c4.3.3 7.8 1.6 10.3 4.3zm-6 9.6c1-.9 1.5-2 1.5-3.4s-.5-2.5-1.5-3.4-2.3-1.3-4-1.3c-1.6 0-2.8.4-3.8 1.3-1 .8-1.5 2-1.5 3.4s.5 2.6 1.5 3.5 2.3 1.3 3.9 1.3c1.6-.1 2.9-.5 3.9-1.4z"/></g><path d="m.299988.300049h83.600012v83.599951h-83.600012z" fill="#000"/><path d="m.299988.300049h83.600012v83.599951h-83.600012z" fill="#dd4b39"/><path d="m.5.5h83.2v83.2h-83.2z" stroke="#d74837"/><path d="m111.8 76.5001-2.2-5.7h-13.9l-2.2 5.7h-8.6l13.7-32h8.6l13.4 32zm-13.5-12h8.9l-4.4-11.4zm48.7-10.1c-3.4-1.9-7.7-3.4-10.3-3.4-2 0-3.3.7-3.3 2.2 0 5.3 16.8 2.3 16.8 13.8 0 6.5-5.8 9.9-12.9 9.9-5.3 0-10.9-2-14.7-5.1l3.2-6.5c3.3 2.8 8.3 4.8 11.6 4.8 2.5 0 4-.9 4-2.6 0-5.4-16.8-2.1-16.8-13.5 0-6 5.1-9.8 12.8-9.8 4.7 0 9.5 1.5 12.8 3.6zm24.2-10.1c9.9 0 17.3 6.9 17.3 16.2 0 9.4-7.4 16.4-17.3 16.4s-17.3-7-17.3-16.4c0-9.3 7.4-16.2 17.3-16.2zm.1 7.1c-4.8 0-8.8 3.9-8.8 9.1s4.1 9.2 8.8 9.2c4.8 0 8.6-4 8.6-9.2s-3.8-9.1-8.6-9.1zm22.9-6.9h7.4l14.5 19.3v-19.3h7.8v32h-7.3l-14.5-19.2v19.2h-7.8v-32z" fill="#fff"/><path d="m49.9 76.5h-9.5l-4.7-8.9h-6.2v8.9h-8.4v-32h14.4c8.5 0 13.3 4.1 13.3 11.2 0 4.8-2 8.4-5.7 10.3zm-20.3-25.3v9.8h6.1c3.4 0 5.3-1.7 5.3-5 0-3.2-2-4.8-5.3-4.8zm24.7-6.7h25.2v6.7h-16.9v6h15.2v6.6h-15.2v6h17.4v6.7h-25.7z" fill="#fff"/><path d="m49.9 76.5h-9.5l-4.7-8.9h-6.2v8.9h-8.4v-32h14.4c8.5 0 13.3 4.1 13.3 11.2 0 4.8-2 8.4-5.7 10.3zm-20.3-25.3v9.8h6.1c3.4 0 5.3-1.7 5.3-5 0-3.2-2-4.8-5.3-4.8zm24.7-6.7h25.2v6.7h-16.9v6h15.2v6.6h-15.2v6h17.4v6.7h-25.7z" fill="#fff"/></g></svg>