<svg width="201" height="102" viewBox="0 0 201 102" fill="none" xmlns="http://www.w3.org/2000/svg">
<path d="M22.9653 100.405C21.5425 99.6078 20.3864 98.4561 19.4971 97.0385C18.6968 95.621 18.2521 94.0263 18.2521 92.2543C18.2521 90.4824 18.6968 88.8877 19.4971 87.4701C20.2975 86.0526 21.4536 84.9008 22.9653 84.1035C24.3882 83.3061 26.0778 82.8631 27.8564 82.8631C29.1903 82.8631 30.4353 83.1289 31.5914 83.5719C32.7475 84.0149 33.7257 84.7236 34.526 85.521L33.281 86.7613C31.8582 85.3438 30.0796 84.635 27.8564 84.635C26.4335 84.635 25.0996 84.9894 23.9436 85.6096C22.7875 86.2298 21.8093 87.2043 21.1868 88.3561C20.4753 89.5078 20.2086 90.7482 20.2086 92.2543C20.2086 93.6719 20.5643 95.0008 21.1868 96.1526C21.8982 97.3043 22.7875 98.1903 23.9436 98.8991C25.0996 99.5193 26.4335 99.8736 27.8564 99.8736C30.0796 99.8736 31.8582 99.1649 33.281 97.6587L34.526 98.8991C33.7257 99.785 32.7475 100.405 31.5914 100.937C30.4353 101.38 29.1903 101.646 27.7675 101.646C26.0778 101.557 24.4771 101.203 22.9653 100.405Z" fill="white"/>
<path d="M41.1067 100.405C39.5949 99.6078 38.4388 98.4561 37.6385 97.0385C36.8381 95.621 36.3935 94.0263 36.3935 92.2543C36.3935 90.4824 36.8381 88.8877 37.6385 87.4701C38.4388 86.0526 39.5949 84.9894 41.1067 84.1035C42.6185 83.3061 44.2192 82.8631 46.0867 82.8631C47.8653 82.8631 49.5549 83.3061 50.9778 84.1035C52.4006 84.9008 53.5567 86.0526 54.446 87.4701C55.2463 88.8877 55.691 90.4824 55.691 92.2543C55.691 94.0263 55.2463 95.621 54.446 97.0385C53.6456 98.4561 52.4895 99.6078 50.9778 100.405C49.5549 101.203 47.8653 101.646 46.0867 101.646C44.2192 101.557 42.5296 101.203 41.1067 100.405ZM49.9106 98.8991C51.0667 98.2789 51.956 97.3043 52.6674 96.1526C53.2899 95.0008 53.6456 93.6719 53.6456 92.2543C53.6456 90.8368 53.2899 89.5078 52.6674 88.3561C52.0449 87.2043 51.0667 86.3184 49.9106 85.6096C48.7545 84.9894 47.4206 84.635 45.9978 84.635C44.5749 84.635 43.241 84.9894 42.0849 85.6096C40.9288 86.2298 39.9506 87.2043 39.3281 88.3561C38.6167 89.5078 38.3499 90.8368 38.3499 92.2543C38.3499 93.6719 38.7056 95.0008 39.3281 96.1526C40.0396 97.3043 40.9288 98.1903 42.0849 98.8991C43.241 99.5193 44.5749 99.8736 45.9978 99.8736C47.4206 99.8736 48.7545 99.5193 49.9106 98.8991Z" fill="white"/>
<path d="M74.8995 83.1289V101.38H73.2988L61.5603 86.5842V101.38H59.6038V83.1289H61.2045L73.032 97.9245V83.1289H74.8995Z" fill="white"/>
<path d="M82.4584 84.8122V91.9886H91.9738V93.6719H82.4584V101.38H80.502V83.1289H93.0409V84.8122H82.4584Z" fill="white"/>
<path d="M105.046 99.5193C103.712 98.1903 103.09 96.1526 103.09 93.5833V83.1289H105.046V93.4947C105.046 95.621 105.491 97.2158 106.469 98.2789C107.447 99.3421 108.781 99.8736 110.649 99.8736C112.516 99.8736 113.85 99.3421 114.828 98.2789C115.807 97.2158 116.251 95.621 116.251 93.4947V83.1289H118.119V93.5833C118.119 96.1526 117.496 98.1903 116.162 99.5193C114.828 100.848 112.961 101.557 110.649 101.557C108.337 101.557 106.38 100.937 105.046 99.5193Z" fill="white"/>
<path d="M124.788 100.937C123.543 100.494 122.565 99.9622 121.854 99.2535L122.654 97.7473C123.277 98.3675 124.166 98.9877 125.322 99.3421C126.389 99.7851 127.545 99.9622 128.701 99.9622C130.302 99.9622 131.547 99.6965 132.436 99.0763C133.237 98.4561 133.681 97.6587 133.681 96.7728C133.681 96.064 133.414 95.4438 132.97 95.0008C132.525 94.5579 131.992 94.2035 131.369 94.0263C130.747 93.7605 129.857 93.4947 128.701 93.2289C127.278 92.8745 126.211 92.5201 125.411 92.2544C124.61 91.9 123.899 91.457 123.277 90.7482C122.654 90.128 122.387 89.1535 122.387 88.0903C122.387 87.2043 122.654 86.3184 123.099 85.6096C123.543 84.8122 124.344 84.2807 125.322 83.8377C126.3 83.3947 127.634 83.1289 129.057 83.1289C130.124 83.1289 131.102 83.3061 132.169 83.5719C133.148 83.8377 134.037 84.2807 134.748 84.7236L134.126 86.2298C133.325 85.6982 132.525 85.3438 131.636 85.078C130.747 84.8122 129.946 84.7236 129.057 84.7236C127.456 84.7236 126.211 84.9894 125.411 85.6096C124.61 86.2298 124.166 87.0272 124.166 88.0017C124.166 88.7105 124.433 89.3307 124.877 89.7736C125.322 90.2166 125.855 90.571 126.567 90.7482C127.278 91.014 128.168 91.2798 129.235 91.5456C130.569 91.9 131.636 92.1657 132.525 92.5201C133.325 92.8745 134.037 93.3175 134.659 93.9377C135.193 94.5579 135.549 95.4438 135.549 96.5956C135.549 97.4815 135.282 98.3675 134.837 99.0763C134.304 99.8736 133.592 100.405 132.525 100.848C131.458 101.291 130.213 101.557 128.701 101.557C127.278 101.557 126.033 101.38 124.788 100.937Z" fill="white"/>
<path d="M157.603 98.0131V101.468H143.73V98.7219L150.844 92.0771C151.556 91.3684 152.089 90.7482 152.356 90.2166C152.623 89.685 152.712 89.1535 152.712 88.7105C152.712 88.0017 152.445 87.3815 152 87.0271C151.467 86.6728 150.755 86.407 149.777 86.407C148.977 86.407 148.265 86.5842 147.643 86.8499C147.02 87.1157 146.487 87.6473 146.042 88.1789L142.93 86.2298C143.641 85.1666 144.619 84.3692 145.864 83.7491C147.109 83.1289 148.532 82.8631 150.222 82.8631C151.556 82.8631 152.801 83.1289 153.779 83.5719C154.757 84.0149 155.558 84.635 156.18 85.4324C156.714 86.2298 157.069 87.2043 157.069 88.2675C157.069 89.2421 156.892 90.2166 156.447 91.1026C156.002 91.9885 155.202 92.9631 154.046 94.1149L149.866 98.1017H157.603V98.0131Z" fill="white"/>
<path d="M162.761 100.582C161.605 99.8737 160.627 98.7219 160.004 97.3044C159.293 95.8868 159.026 94.2035 159.026 92.2544C159.026 90.3052 159.382 88.6219 160.004 87.2044C160.715 85.7868 161.605 84.7237 162.761 83.9263C163.917 83.2175 165.34 82.7745 166.851 82.7745C168.363 82.7745 169.697 83.1289 170.942 83.9263C172.098 84.6351 173.076 85.7868 173.699 87.2044C174.41 88.6219 174.677 90.3052 174.677 92.2544C174.677 94.2035 174.321 95.8868 173.699 97.3044C172.988 98.7219 172.098 99.7851 170.942 100.582C169.786 101.291 168.363 101.734 166.851 101.734C165.251 101.734 163.917 101.38 162.761 100.582ZM169.43 96.6842C170.053 95.7096 170.409 94.2921 170.409 92.2544C170.409 90.2166 170.053 88.7991 169.43 87.8245C168.808 86.85 167.919 86.407 166.763 86.407C165.695 86.407 164.806 86.85 164.184 87.8245C163.561 88.7991 163.205 90.2166 163.205 92.2544C163.205 94.2921 163.561 95.7096 164.184 96.6842C164.806 97.6588 165.695 98.1017 166.763 98.1017C167.919 98.1903 168.808 97.6588 169.43 96.6842Z" fill="white"/>
<path d="M183.303 83.1289V101.38H179.035V86.5842H175.389V83.1289H183.303Z" fill="white"/>
<path d="M198.599 85.1666C200.022 86.7614 200.733 88.9763 200.733 91.8999C200.733 93.9377 200.378 95.7096 199.577 97.2157C198.777 98.7219 197.71 99.785 196.287 100.582C194.864 101.38 193.263 101.734 191.396 101.734C190.418 101.734 189.439 101.646 188.55 101.38C187.661 101.203 186.86 100.848 186.238 100.494L187.839 97.3929C188.728 98.0131 189.884 98.2789 191.307 98.2789C192.819 98.2789 194.064 97.8359 195.042 96.9499C195.931 96.064 196.465 94.735 196.465 92.9631C195.398 94.0263 193.886 94.6464 191.929 94.6464C190.773 94.6464 189.706 94.3806 188.728 93.9377C187.75 93.4947 187.038 92.7859 186.416 91.8999C185.882 91.014 185.615 90.0394 185.615 88.8877C185.615 87.6473 185.882 86.5842 186.505 85.6982C187.127 84.8122 187.928 84.1035 188.995 83.5719C190.062 83.0403 191.218 82.8631 192.552 82.8631C195.131 82.8631 197.087 83.6605 198.599 85.1666ZM195.131 90.6596C195.753 90.128 196.02 89.5078 196.02 88.7105C196.02 87.9131 195.753 87.2929 195.131 86.7613C194.597 86.2298 193.797 85.964 192.819 85.964C191.929 85.964 191.129 86.2298 190.595 86.6728C190.062 87.1157 189.706 87.8245 189.706 88.6219C189.706 89.4192 189.973 90.128 190.595 90.6596C191.129 91.1912 191.929 91.3684 192.819 91.3684C193.797 91.457 194.508 91.1912 195.131 90.6596Z" fill="white"/>
<path d="M1 1H75.3442V75.0667H1V1Z" fill="black"/>
<path d="M1 1H75.3442V75.0667H1V1Z" fill="#DD4B39"/>
<path d="M1.17786 1.17719H75.1663V74.8895H1.17786V1.17719Z" stroke="#D74837"/>
<path d="M100.155 68.5105L98.1987 63.4605H85.8377L83.8813 68.5105H76.2334L88.4166 40.1596H96.0645L107.981 68.5105H100.155ZM88.1498 57.879H96.0645L92.1516 47.7789L88.1498 57.879ZM131.458 48.9307C128.434 47.2474 124.61 45.9184 122.298 45.9184C120.52 45.9184 119.364 46.5386 119.364 47.8675C119.364 52.5632 134.304 49.9053 134.304 60.0939C134.304 65.8526 129.146 68.8649 122.832 68.8649C118.119 68.8649 113.139 67.093 109.759 64.3465L112.605 58.5877C115.54 61.0684 119.986 62.8404 122.921 62.8404C125.144 62.8404 126.478 62.043 126.478 60.5368C126.478 55.7526 111.538 58.6763 111.538 48.5763C111.538 43.2605 116.073 39.8939 122.921 39.8939C127.1 39.8939 131.369 41.2228 134.304 43.0833L131.458 48.9307ZM152.979 39.9825C161.783 39.9825 168.363 46.0956 168.363 54.3351C168.363 62.6632 161.783 68.8649 152.979 68.8649C144.175 68.8649 137.594 62.6632 137.594 54.3351C137.594 46.0956 144.175 39.9825 152.979 39.9825ZM153.068 46.2728C148.799 46.2728 145.242 49.7281 145.242 54.3351C145.242 58.9421 148.888 62.486 153.068 62.486C157.336 62.486 160.715 58.9421 160.715 54.3351C160.715 49.7281 157.336 46.2728 153.068 46.2728ZM173.432 40.1596H180.013L192.908 57.2588V40.1596H199.844V68.5105H193.352L180.458 51.5V68.5105H173.521V40.1596H173.432Z" fill="white"/>
</svg>
